HIERARCHY
ROOT Hips
{
	OFFSET 0.000000 0.000000 0.000000
	CHANNELS 6 Xposition Yposition Zposition Zrotation Yrotation Xrotation 
	JOINT LeftUpLeg_virtual
	{
		OFFSET 0.000000 0.000000 0.000000
		CHANNELS 3 Zrotation Yrotation Xrotation
		JOINT LeftUpLeg
		{
			OFFSET 10.205400 -3.823500 0.155100
			CHANNELS 3 Zrotation Yrotation Xrotation
			JOINT LeftLeg
			{
				OFFSET 0.708757 -12.982077 0.567790
				CHANNELS 3 Zrotation Yrotation Xrotation
				JOINT LeftFoot
				{
					OFFSET -0.708756 -10.717838 -2.184338
					CHANNELS 3 Zrotation Yrotation Xrotation
					JOINT LeftToeBase
					{
						OFFSET 0.108149 -7.191104 7.560241
						CHANNELS 3 Zrotation Yrotation Xrotation
						End Site
						{
							OFFSET 0.000000 0.000000 0.000000
						}
					}
				}
			}
		}
	}
	JOINT RightUpLeg_virtual
	{
		OFFSET 0.000000 0.000000 0.000000
		CHANNELS 3 Zrotation Yrotation Xrotation
		JOINT RightUpLeg
		{
			OFFSET -10.205400 -3.823500 0.005500
			CHANNELS 3 Zrotation Yrotation Xrotation
			JOINT RightLeg
			{
				OFFSET -0.708756 -12.982134 0.610632
				CHANNELS 3 Zrotation Yrotation Xrotation
				JOINT RightFoot
				{
					OFFSET 0.708754 -10.717769 -1.945823
					CHANNELS 3 Zrotation Yrotation Xrotation
					JOINT RightToeBase
					{
						OFFSET -0.108140 -7.191069 7.372968
						CHANNELS 3 Zrotation Yrotation Xrotation
						End Site
						{
							OFFSET 0.000000 0.000000 0.000000
						}
					}
				}
			}
		}
	}
	JOINT Spine_virtual
	{
		OFFSET 0.000000 0.000000 0.000000
		CHANNELS 3 Zrotation Yrotation Xrotation
		JOINT Spine
		{
			OFFSET 0.000000 6.876099 0.125700
			CHANNELS 3 Zrotation Yrotation Xrotation
			JOINT Spine1
			{
				OFFSET 0.000000 8.022060 0.146608
				CHANNELS 3 Zrotation Yrotation Xrotation
				JOINT Spine2
				{
					OFFSET 0.000000 9.168068 0.167552
					CHANNELS 3 Zrotation Yrotation Xrotation
					JOINT Neck_virtual
					{
						OFFSET 0.000000 0.000000 0.000000
						CHANNELS 3 Zrotation Yrotation Xrotation
						JOINT Neck
						{
							OFFSET 0.000000 10.314075 0.188496
							CHANNELS 3 Zrotation Yrotation Xrotation
							JOINT Head
							{
								OFFSET 0.000000 7.643700 -2.377400
								CHANNELS 3 Zrotation Yrotation Xrotation
								End Site
								{
									OFFSET 0.000000 0.000000 0.000000
								}
							}
						}
					}
					JOINT LeftShoulder_virtual
					{
						OFFSET 0.000000 0.000000 0.000000
						CHANNELS 3 Zrotation Yrotation Xrotation
						JOINT LeftShoulder
						{
							OFFSET 4.392200 8.824978 0.174984
							CHANNELS 3 Zrotation Yrotation Xrotation
							JOINT LeftArm
							{
								OFFSET 8.771219 -2.981674 -0.026999
								CHANNELS 3 Zrotation Yrotation Xrotation
								JOINT LeftForeArm
								{
									OFFSET 8.512804 0.000000 -0.000000
									CHANNELS 3 Zrotation Yrotation Xrotation
									JOINT LeftHand
									{
										OFFSET 18.484802 0.000000 -0.000000
										CHANNELS 3 Zrotation Yrotation Xrotation
										End Site
										{
											OFFSET 0.000000 0.000000 0.000000
										}
									}
								}
							}
						}
					}
					JOINT RightShoulder_virtual
					{
						OFFSET 0.000000 0.000000 0.000000
						CHANNELS 3 Zrotation Yrotation Xrotation
						JOINT RightShoulder
						{
							OFFSET -4.392200 8.824993 0.141379
							CHANNELS 3 Zrotation Yrotation Xrotation
							JOINT RightArm
							{
								OFFSET -8.771282 -2.981682 -0.094208
								CHANNELS 3 Zrotation Yrotation Xrotation
								JOINT RightForeArm
								{
									OFFSET -8.494598 0.000000 0.000000
									CHANNELS 3 Zrotation Yrotation Xrotation
									JOINT RightHand
									{
										OFFSET -18.483803 0.000000 0.000001
										CHANNELS 3 Zrotation Yrotation Xrotation
										End Site
										{
											OFFSET 0.000000 0.000000 0.000000
										}
									}
								}
							}
						}
					}
				}
			}
		}
	}
}
MOTION
Frames: 14
Frame Time: 0.033333
8.806682 36.064274 2.410300 -179.950049 -18.382126 179.924327 -1.371276 -7.370905 11.916092 6.470918 2.468376 -24.169041 1.592843 4.646652 17.287419 -4.407749 0.669248 15.917653 0.000000 0.000000 0.000000 5.000819 -8.309421 10.812681 7.919417 -13.772303 -5.490596 -1.754947 -2.355837 10.815543 -0.729480 5.820055 6.060799 0.000000 0.000000 0.000000 2.428803 -3.543282 0.425756 2.492115 4.092927 -15.808159 -0.901232 -1.490536 11.124938 -0.015694 0.028310 -0.002032 -1.019802 0.270086 9.463123 -2.887285 -3.942246 21.376894 0.000000 0.000000 0.000000 0.795552 0.971936 5.600154 -5.775539 -14.107953 4.407594 -39.381365 12.311769 -2.917348 -4.156826 -75.197903 10.341796 0.000000 0.000000 0.000000 -3.501066 2.210319 4.947716 29.394621 16.897678 10.052238 23.368534 20.166048 13.400895 -13.038098 74.243227 -14.748830 0.000000 0.000000 0.000000 
8.742928 36.058598 2.450466 -179.956579 -19.950622 179.877936 -1.281740 -7.743937 11.903600 6.281079 1.832530 -24.503749 1.632154 4.657203 16.729222 -4.346843 0.602436 16.731436 0.000000 0.000000 0.000000 5.043067 -8.979860 10.849259 7.713415 -13.974229 -5.567343 -1.484557 -2.555106 11.173792 -0.839299 5.725362 5.775746 0.000000 0.000000 0.000000 2.561669 -3.975120 0.469120 2.588339 4.563484 -16.043064 -0.827637 -1.478226 11.162060 -0.019752 0.030935 -0.021296 -0.928087 0.287697 9.412535 -2.444177 -4.286555 21.677094 0.000000 0.000000 0.000000 0.822069 1.041250 5.634757 -6.207967 -15.025842 4.564600 -38.261897 10.593452 -2.891690 -2.624531 -65.948154 7.865826 0.000000 0.000000 0.000000 -3.404072 2.217898 4.994885 30.310269 18.607771 11.085681 26.402675 23.928258 16.884631 -11.206131 70.698646 -12.452278 0.000000 0.000000 0.000000 
8.659159 36.060936 2.495290 -179.877649 -21.712862 179.777122 -1.128910 -8.190334 11.955812 5.925974 1.464478 -24.827599 1.635364 4.678344 15.881872 -4.395319 0.456466 17.683373 0.000000 0.000000 0.000000 5.210964 -9.797532 10.779907 7.414938 -14.102483 -5.509342 -1.258259 -2.689503 11.475227 -0.875882 5.640092 5.298688 0.000000 0.000000 0.000000 2.785105 -4.505260 0.531826 2.718460 5.096330 -16.308255 -0.722233 -1.478414 11.126803 0.001864 0.025488 -0.009765 -0.858245 0.358712 9.255791 -1.591062 -4.852598 21.774411 0.000000 0.000000 0.000000 0.815209 1.150746 5.547646 -6.695280 -16.035042 4.703589 -37.255076 8.444037 -2.711312 -2.253772 -56.978032 6.652991 0.000000 0.000000 0.000000 -3.318657 2.232402 5.003006 30.971121 20.317591 12.074625 29.782876 27.381486 20.580808 -10.048416 66.556246 -10.794028 0.000000 0.000000 0.000000 
8.560503 36.057430 2.532648 -179.996808 -23.596625 179.779567 -1.190375 -8.662967 11.972855 5.566037 1.148560 -25.239924 1.761079 4.503404 15.336152 -4.521173 0.206942 18.296815 0.000000 0.000000 0.000000 5.229534 -10.827767 10.718309 6.978401 -14.286119 -5.284943 -0.901979 -2.809266 11.672125 -0.941500 5.487805 4.813744 0.000000 0.000000 0.000000 2.905900 -5.077005 0.565810 2.762833 5.689339 -16.657783 -0.650846 -1.426887 11.126193 -0.010070 0.044430 -0.032286 -0.701168 0.340171 9.053644 -0.358661 -5.617876 21.651495 0.000000 0.000000 0.000000 0.892811 1.199932 5.408183 -7.211529 -17.090755 4.983359 -36.523146 6.253527 -2.343427 -2.185441 -49.942924 5.851327 0.000000 0.000000 0.000000 -3.171863 2.256792 4.926184 31.252849 21.834897 12.987663 33.299078 29.910413 24.185401 -9.656993 62.548318 -9.830509 0.000000 0.000000 0.000000 
8.441581 36.046871 2.536677 179.961975 -25.614854 179.693043 -1.175028 -9.299262 12.100783 5.188115 0.595304 -25.576816 1.859005 4.681151 14.813748 -4.607120 -0.067027 18.817180 0.000000 0.000000 0.000000 5.358157 -11.973299 10.597966 6.539460 -14.485272 -4.912266 -0.670649 -2.887803 11.679822 -0.878494 5.357038 4.164692 0.000000 0.000000 0.000000 3.068248 -5.721184 0.676319 2.843332 6.296649 -16.968452 -0.544324 -1.365154 11.100087 0.014279 0.075736 -0.035400 -0.572454 0.389616 8.928017 1.239989 -6.521862 21.479982 0.000000 0.000000 0.000000 0.965339 1.273704 5.301198 -7.690034 -17.926159 5.096254 -36.046347 4.651177 -2.100042 -2.619228 -45.616293 5.751106 0.000000 0.000000 0.000000 -3.087275 2.300855 4.890351 31.097038 22.974945 13.797877 36.203985 31.287485 27.271513 -9.821446 59.424722 -9.487701 0.000000 0.000000 0.000000 
8.306724 36.024876 2.495240 179.917168 -27.623998 179.641789 -1.170991 -9.979991 12.200486 4.814676 0.079776 -25.924775 2.074105 4.692313 14.777234 -4.616242 -0.398054 18.789260 0.000000 0.000000 0.000000 5.406671 -13.085324 10.475202 6.103669 -14.718274 -4.435212 -0.480476 -2.968418 11.653809 -0.764187 5.198409 3.526488 0.000000 0.000000 0.000000 3.214227 -6.364963 0.722432 2.928089 6.879126 -17.307027 -0.421634 -1.312790 11.089447 0.015684 0.090452 -0.078159 -0.390425 0.381395 8.951546 3.183656 -7.558974 21.220773 0.000000 0.000000 0.000000 1.053382 1.306887 5.305659 -8.214523 -18.431445 5.330363 -35.959027 4.363533 -2.096149 -3.086548 -44.176117 5.829190 0.000000 0.000000 0.000000 -3.009602 2.322398 4.977712 30.474368 23.687371 14.264270 38.499198 31.425185 29.833611 -10.071578 57.599579 -9.151694 0.000000 0.000000 0.000000 
8.159706 35.994732 2.396773 179.777464 -29.478263 179.704490 -1.217084 -10.492484 12.242548 4.362872 -0.566597 -26.235928 2.385730 4.472568 14.814115 -4.547426 -0.731816 18.773395 0.000000 0.000000 0.000000 5.358455 -13.977649 10.383278 5.733730 -14.990271 -3.904380 -0.396514 -3.086445 11.709830 -0.351110 5.033499 3.023422 0.000000 0.000000 0.000000 3.241380 -6.870925 0.639504 2.983860 7.431179 -17.699773 -0.234844 -1.271411 11.319334 0.009291 0.097920 -0.069324 -0.168762 0.383158 9.025942 5.329463 -8.670008 20.863494 0.000000 0.000000 0.000000 1.143441 1.321861 5.318893 -8.723349 -18.523207 5.480084 -36.237002 5.602434 -2.511115 -3.717525 -44.899707 6.204379 0.000000 0.000000 0.000000 -2.888122 2.287034 4.976769 29.554686 23.964706 14.581938 39.974194 30.810529 32.011563 -10.876176 57.036922 -9.395782 0.000000 0.000000 0.000000 
8.008007 35.952709 2.261472 179.743217 -31.379043 179.687114 -1.161337 -11.054481 12.261731 4.040776 -1.484953 -26.447438 2.660973 4.529156 14.906700 -4.527453 -1.145714 18.546884 0.000000 0.000000 0.000000 5.432790 -14.782667 10.314408 5.470328 -15.276893 -3.345627 -0.462244 -3.246904 11.832825 -0.044081 5.163834 2.731814 0.000000 0.000000 0.000000 3.358318 -7.307212 0.604243 3.021823 7.834503 -18.078529 -0.108944 -1.285987 11.452384 0.015436 0.087165 -0.066683 0.065721 0.357446 9.262721 7.616768 -9.692270 20.419001 0.000000 0.000000 0.000000 1.339639 1.319270 5.503176 -9.253388 -18.311368 5.755261 -36.999722 8.228907 -3.033416 -4.245321 -46.869735 6.709410 0.000000 0.000000 0.000000 -2.795714 2.289418 5.141854 28.531363 23.958265 14.628657 40.906300 29.981098 33.995235 -11.337709 57.420014 -9.250704 0.000000 0.000000 0.000000 
7.874800 35.902824 2.120240 179.709572 -33.106757 179.649890 -1.108916 -11.388055 12.199432 3.792638 -2.124854 -26.531054 2.536075 3.744599 14.921605 -4.340844 -1.223311 18.232475 0.000000 0.000000 0.000000 5.405304 -15.298442 10.313061 5.298052 -15.532981 -2.844125 -0.516165 -3.430545 12.087174 0.219149 5.159893 2.489960 0.000000 0.000000 0.000000 3.417417 -7.588916 0.556733 3.012056 8.149295 -18.449657 0.078594 -1.293068 11.565383 0.000336 0.084440 -0.054370 0.390998 0.297521 9.558947 9.860677 -10.705574 19.892236 0.000000 0.000000 0.000000 1.539277 1.218031 5.805919 -9.755163 -18.114693 5.982956 -38.128267 11.474730 -3.708099 -4.910588 -49.161837 7.431731 0.000000 0.000000 0.000000 -2.644128 2.216001 5.342512 27.624885 23.687315 14.624490 41.482594 29.432054 36.038687 -12.176579 58.090212 -9.521934 0.000000 0.000000 0.000000 
7.767095 35.857738 2.015823 179.640942 -34.591828 179.720145 -1.116345 -11.505725 12.064400 3.607484 -2.598737 -26.581493 2.487535 3.600189 14.920519 -4.362124 -1.559825 18.073131 0.000000 0.000000 0.000000 5.357265 -15.562502 10.301589 5.199654 -15.727231 -2.478824 -0.633687 -3.605012 12.400855 0.458737 5.120432 2.253662 0.000000 0.000000 0.000000 3.416955 -7.709975 0.445236 2.877317 8.285509 -18.898358 0.263601 -1.367195 11.889949 0.034380 0.052380 -0.024931 0.629543 0.297553 9.804571 11.956380 -11.611280 19.298153 0.000000 0.000000 0.000000 1.696736 1.198516 6.078924 -10.174351 -18.015440 6.124181 -39.562273 14.686273 -4.556652 -5.497693 -50.937065 8.244148 0.000000 0.000000 0.000000 -2.496631 2.190306 5.508228 26.949707 23.342899 14.577914 42.062439 29.401434 37.851812 -12.476854 58.795955 -9.271963 0.000000 0.000000 0.000000 
7.688296 35.818054 1.974162 179.595576 -35.632025 179.764568 -1.086393 -11.453081 11.938180 3.600614 -3.030464 -26.656306 2.620337 4.430835 14.927752 -4.576454 -2.088121 17.891622 0.000000 0.000000 0.000000 5.325664 -15.570454 10.361397 5.190089 -15.837709 -2.281402 -0.714901 -3.728259 12.631660 0.628539 5.006171 1.994495 0.000000 0.000000 0.000000 3.425815 -7.623378 0.411182 2.651491 8.349000 -19.323642 0.436029 -1.420685 12.139515 0.014377 0.005013 -0.047895 0.919213 0.256556 10.119583 13.791139 -12.317520 18.649497 0.000000 0.000000 0.000000 1.916561 1.145299 6.413038 -10.496520 -18.028160 6.212272 -41.274184 17.424260 -5.622902 -5.895058 -52.089563 8.893975 0.000000 0.000000 0.000000 -2.265440 2.177241 5.860082 26.484545 23.020309 14.403489 42.674523 29.751058 39.806059 -13.049006 59.215541 -9.300937 0.000000 0.000000 0.000000 
7.632321 35.792931 1.994684 179.521058 -36.224796 179.862650 -1.127547 -11.372262 11.811568 3.412816 -2.976044 -26.808204 2.770583 5.078228 14.908541 -4.675226 -2.672693 17.826918 0.000000 0.000000 0.000000 5.289827 -15.507354 10.380414 5.213329 -15.851064 -2.299768 -0.803645 -3.779741 12.785439 0.831678 4.913828 1.838480 0.000000 0.000000 0.000000 3.416891 -7.616971 0.343337 2.339149 8.427986 -19.728754 0.594372 -1.422091 12.538638 0.042052 0.017508 -0.073725 1.101613 0.305316 10.376372 15.254597 -12.926791 17.993088 0.000000 0.000000 0.000000 2.068646 1.097542 6.656342 -10.720832 -18.152887 6.188344 -43.290101 19.641510 -7.088571 -6.152759 -52.615539 9.477366 0.000000 0.000000 0.000000 -2.081708 2.173822 6.010093 26.200073 22.525368 14.248147 43.358007 30.200784 41.433785 -13.507591 59.609609 -9.291728 0.000000 0.000000 0.000000 
7.588503 35.783592 2.055738 179.516113 -36.456217 179.850656 -1.097645 -11.307592 11.758207 3.252481 -2.835215 -26.956072 2.771647 5.413134 14.968715 -4.871220 -3.222634 17.735872 0.000000 0.000000 0.000000 5.269701 -15.433629 10.446738 5.230969 -15.797425 -2.413733 -0.875600 -3.764446 12.859351 0.987198 4.784634 1.750921 0.000000 0.000000 0.000000 3.435566 -7.649663 0.371626 2.061209 8.410517 -20.043209 0.753226 -1.339335 12.800183 0.029012 0.014530 -0.038852 1.305547 0.116881 10.615098 16.397177 -13.227086 17.404685 0.000000 0.000000 0.000000 2.292596 1.118827 6.919412 -10.814365 -18.250187 6.037240 -45.631702 21.563435 -8.803551 -6.306537 -52.870763 9.925192 0.000000 0.000000 0.000000 -1.833390 2.116936 6.248064 25.997698 21.982306 14.007469 44.202560 30.268943 42.630294 -13.900598 60.138532 -9.271042 0.000000 0.000000 0.000000 
7.551486 35.780804 2.129910 179.580727 -36.323048 179.759050 -1.176563 -11.200604 11.815411 3.164558 -2.302743 -27.042372 2.477103 5.558612 15.054555 -4.617600 -3.046467 17.656632 0.000000 0.000000 0.000000 5.244825 -15.301862 10.579231 5.264398 -15.697866 -2.603155 -0.920771 -3.710613 12.921420 1.106853 4.660934 1.717686 0.000000 0.000000 0.000000 3.473734 -7.563891 0.466429 1.836049 8.345684 -20.218101 0.888220 -1.375901 13.017456 0.013205 0.045713 -0.031036 1.462080 0.327691 10.887958 17.065721 -13.690955 16.929739 0.000000 0.000000 0.000000 2.455552 1.101545 7.159543 -10.852519 -18.195042 5.960873 -48.232477 23.234044 -10.639112 -6.252157 -53.282866 10.175679 0.000000 0.000000 0.000000 -1.669260 2.195157 6.489679 25.708251 21.334676 13.569475 45.104158 29.965846 43.437333 -14.222010 60.837383 -9.238438 0.000000 0.000000 0.000000 
